<svg width="4" height="3" viewBox="0 0 4 3" fill="none" xmlns="http://www.w3.org/2000/svg">
<g clip-path="url(#clip0_1366_1219)">
<path d="M2.92652 1.11029H2.84123V1.10589H1.88829V1.52942H2.48669C2.39939 1.77597 2.1648 1.95295 1.88829 1.95295C1.53745 1.95295 1.253 1.6685 1.253 1.31766C1.253 0.966817 1.53745 0.682364 1.88829 0.682364C2.05024 0.682364 2.19757 0.743458 2.30976 0.843253L2.60924 0.543764C2.42014 0.367523 2.16719 0.258835 1.88829 0.258835C1.30356 0.258835 0.829468 0.732923 0.829468 1.31766C0.829468 1.90239 1.30356 2.37648 1.88829 2.37648C2.47303 2.37648 2.94712 1.90239 2.94712 1.31766C2.94712 1.24666 2.93981 1.17736 2.92652 1.11029Z" fill="#FFC107"/>
<path d="M0.951538 0.824829L1.29941 1.07995C1.39354 0.846905 1.62151 0.682364 1.88828 0.682364C2.05023 0.682364 2.19756 0.743458 2.30974 0.843252L2.60923 0.543764C2.42013 0.367523 2.16717 0.258835 1.88828 0.258835C1.48159 0.258835 1.12889 0.488441 0.951538 0.824829Z" fill="#FF3D00"/>
<path d="M1.8883 2.37648C2.16179 2.37648 2.4103 2.27182 2.59818 2.10161L2.27048 1.8243C2.1606 1.90787 2.02634 1.95306 1.8883 1.95295C1.6129 1.95295 1.37906 1.77734 1.29096 1.53228L0.945679 1.79831C1.12091 2.14121 1.47678 2.37648 1.8883 2.37648Z" fill="#4CAF50"/>
<path d="M2.92654 1.11029H2.84125V1.1059H1.88831V1.52943H2.4867C2.44494 1.64676 2.36972 1.7493 2.27033 1.82436L2.27049 1.82425L2.59819 2.10156C2.57501 2.12263 2.94713 1.84707 2.94713 1.31766C2.94713 1.24667 2.93982 1.17737 2.92654 1.11029Z" fill="#1976D2"/>
</g>
<defs>
<clipPath id="clip0_1366_1219">
<rect width="2.54118" height="2.54118" fill="white" transform="translate(0.617676 0.0470734)"/>
</clipPath>
</defs>
</svg>
