<svg width="23" height="19" viewBox="0 0 23 19" fill="none" xmlns="http://www.w3.org/2000/svg">
<circle opacity="0.1" cx="11.3965" cy="12.0353" r="6.56471" fill="#53B175"/>
<circle cx="4.09064" cy="7.05883" r="0.423529" fill="#B468FF"/>
<circle cx="12.0848" cy="2.45294" r="0.9" fill="#B468FF"/>
<circle cx="20.1847" cy="10.8706" r="0.847059" fill="#53B175"/>
<path d="M16.4788 1.34118L16.6993 1.96782L17.3259 2.18823L16.6993 2.40865L16.4788 3.03529L16.2584 2.40865L15.6318 2.18823L16.2584 1.96782L16.4788 1.34118Z" fill="#FB46FF"/>
<path d="M3.41862 9.12677C3.41862 9.12677 3.2443 9.8305 2.41867 9.8608C1.86825 9.881 1.73877 9.31058 1.09578 9.69671C0.809437 9.86867 0.596497 10.3911 0.596497 10.3911" stroke="#FB46FF" stroke-width="0.317647" stroke-linecap="round"/>
<path d="M3.72004 13.2L4.02585 14.006L4.83181 14.3118L4.02585 14.6176L3.72004 15.4235L3.41423 14.6176L2.60828 14.3118L3.41423 14.006L3.72004 13.2Z" fill="#53B175"/>
<circle cx="11.0788" cy="1.12941" r="0.211765" fill="#FB46FF"/>
<path d="M4.44262 1.21012C4.54671 2.11499 6.64948 3.01688 6.69633 2.27657C6.77058 1.10343 3.93467 2.01812 7.80365 3.55541" stroke="#53B175" stroke-width="0.317647" stroke-linecap="round"/>
<path d="M19.973 14.9799C20.4986 14.9053 21.6446 15.031 22.0238 16.1304" stroke="#B468FF" stroke-width="0.317647" stroke-linecap="round"/>
<path d="M19.4519 4.7683C19.4519 4.7683 20.2205 5.1593 20.5426 4.80888C20.8364 4.48923 20.4967 3.99035 20.8522 3.74107C21.1414 3.53823 21.7542 3.67184 21.7542 3.67184" stroke="#53B175" stroke-width="0.317647" stroke-linecap="round"/>
<rect x="19.1259" y="8.64706" width="0.741176" height="0.741176" rx="0.211765" fill="#53B175"/>
<path d="M10.5861 7.53528C11.105 7.32035 11.688 7.32035 12.2069 7.53528L14.0054 8.28027C14.5243 8.4952 14.9366 8.90745 15.1515 9.42633L15.8965 11.2249C16.1114 11.7438 16.1114 12.3268 15.8965 12.8457L15.1515 14.6443C14.9366 15.1631 14.5243 15.5754 14.0054 15.7903L12.2069 16.5353C11.688 16.7502 11.105 16.7502 10.5861 16.5353L8.78751 15.7903C8.26863 15.5754 7.85638 15.1631 7.64145 14.6443L6.89645 12.8457C6.68153 12.3268 6.68153 11.7438 6.89645 11.2249L7.64145 9.42633C7.85638 8.90745 8.26863 8.4952 8.78751 8.28027L10.5861 7.53528Z" fill="#F5F5FF" stroke="#53B175" stroke-width="0.847059"/>
<path fill-rule="evenodd" clip-rule="evenodd" d="M12.6544 10.752C12.7137 10.6932 12.7937 10.6602 12.8771 10.6599C12.9606 10.6597 13.0408 10.6923 13.1004 10.7508C13.16 10.8092 13.1942 10.8887 13.1956 10.9722C13.197 11.0556 13.1656 11.1363 13.108 11.1967L11.4173 13.3101C11.3882 13.3414 11.3531 13.3665 11.3142 13.384C11.2752 13.4014 11.2331 13.4108 11.1904 13.4116C11.1477 13.4124 11.1052 13.4045 11.0656 13.3886C11.026 13.3726 10.9901 13.3488 10.9599 13.3186L9.83963 12.1979C9.80842 12.1688 9.78339 12.1338 9.76602 12.0948C9.74866 12.0559 9.73933 12.0138 9.73857 11.9711C9.73782 11.9285 9.74567 11.8861 9.76164 11.8466C9.77762 11.807 9.8014 11.7711 9.83156 11.7409C9.86173 11.7108 9.89766 11.687 9.93721 11.671C9.97676 11.655 10.0191 11.6472 10.0618 11.6479C10.1044 11.6487 10.1465 11.658 10.1855 11.6754C10.2244 11.6927 10.2595 11.7178 10.2886 11.749L11.1754 12.6354L12.6464 10.7613C12.649 10.758 12.6518 10.7549 12.6548 10.752H12.6544Z" fill="#53B175"/>
</svg>
